solid Transmitter
facet normal -1.8698763907600536e-16 1.0407789264062102e-16 -1.0
  outer loop
    vertex 2.525877819903267 -86.01479849791603 3.3839597790574766e-14
    vertex 2.4831021267723385 -110.66742945901629 3.3839597790574766e-14
    vertex 2.4831021267723385 -86.6674294590163 3.3839597790574766e-14
  endloop
endfacet
facet normal -1.8698763907600536e-16 1.0407789264062102e-16 -1.0
  outer loop
    vertex 2.4831021267723385 -110.66742945901629 3.3839597790574766e-14
    vertex 2.525877819903267 -86.01479849791603 3.3839597790574766e-14
    vertex 2.525877819903267 -111.32006042011656 3.3839597790574766e-14
  endloop
endfacet
facet normal -1.8698763907600536e-16 1.0407789264062102e-16 -1.0
  outer loop
    vertex 2.525877819903267 -111.32006042011656 3.3839597790574766e-14
    vertex 2.525877819903267 -86.01479849791603 3.3839597790574766e-14
    vertex 2.653472995327003 -85.3733342335037 3.3839597790574766e-14
  endloop
endfacet
facet normal -1.8698763907600536e-16 1.0407789264062102e-16 -1.0
  outer loop
    vertex 2.525877819903267 -111.32006042011656 3.3839597790574766e-14
    vertex 2.653472995327003 -85.3733342335037 3.3839597790574766e-14
    vertex 2.653472995327003 -111.9615246845289 3.3839597790574766e-14
  endloop
endfacet
facet normal -1.8698763907600536e-16 1.0407789264062102e-16 -1.0
  outer loop
    vertex 2.653472995327003 -111.9615246845289 3.3839597790574766e-14
    vertex 2.653472995327003 -85.3733342335037 3.3839597790574766e-14
    vertex 2.863704464215913 -84.75401229719084 3.3839597790574766e-14
  endloop
endfacet
facet normal -1.8698763907600536e-16 1.0407789264062102e-16 -1.0
  outer loop
    vertex 2.653472995327003 -111.9615246845289 3.3839597790574766e-14
    vertex 2.863704464215913 -84.75401229719084 3.3839597790574766e-14
    vertex 2.863704464215913 -112.58084662084173 3.3839597790574766e-14
  endloop
endfacet
facet normal -1.8698763907600536e-16 1.0407789264062102e-16 -1.0
  outer loop
    vertex 2.863704464215913 -112.58084662084173 3.3839597790574766e-14
    vertex 2.863704464215913 -84.75401229719084 3.3839597790574766e-14
    vertex 3.1529751078501618 -84.1674294590163 3.3839597790574766e-14
  endloop
endfacet
facet normal -1.8698763907600536e-16 1.0407789264062102e-16 -1.0
  outer loop
    vertex 2.863704464215913 -112.58084662084173 3.3839597790574766e-14
    vertex 3.1529751078501618 -84.1674294590163 3.3839597790574766e-14
    vertex 3.1529751078501618 -113.16742945901626 3.3839597790574766e-14
  endloop
endfacet
facet normal -1.8698763907600536e-16 1.0407789264062102e-16 -1.0
  outer loop
    vertex 3.1529751078501618 -113.16742945901626 3.3839597790574766e-14
    vertex 3.1529751078501618 -84.1674294590163 3.3839597790574766e-14
    vertex 3.516335425316178 -83.6236223139727 3.3839597790574766e-14
  endloop
endfacet
facet normal -1.8698763907600536e-16 1.0407789264062102e-16 -1.0
  outer loop
    vertex 3.1529751078501618 -113.16742945901626 3.3839597790574766e-14
    vertex 3.516335425316178 -83.6236223139727 3.3839597790574766e-14
    vertex 3.516335425316178 -113.71123660405988 3.3839597790574766e-14
  endloop
endfacet
facet normal -1.8698763907600536e-16 1.0407789264062102e-16 -1.0
  outer loop
    vertex 3.516335425316178 -113.71123660405988 3.3839597790574766e-14
    vertex 3.516335425316178 -83.6236223139727 3.3839597790574766e-14
    vertex 3.9475682208395773 -83.13189555308355 3.3839597790574766e-14
  endloop
endfacet
facet normal -1.8698763907600536e-16 1.0407789264062102e-16 -1.0
  outer loop
    vertex 3.516335425316178 -113.71123660405988 3.3839597790574766e-14
    vertex 3.9475682208395773 -83.13189555308355 3.3839597790574766e-14
    vertex 3.9475682208395773 -114.20296336494901 3.3839597790574766e-14
  endloop
endfacet
facet normal -1.8698763907600536e-16 1.0407789264062102e-16 -1.0
  outer loop
    vertex 3.9475682208395773 -114.20296336494901 3.3839597790574766e-14
    vertex 3.9475682208395773 -83.13189555308355 3.3839597790574766e-14
    vertex 4.439294981728722 -82.70066275756012 3.3839597790574766e-14
  endloop
endfacet
facet normal -1.8698763907600536e-16 1.0407789264062102e-16 -1.0
  outer loop
    vertex 3.9475682208395773 -114.20296336494901 3.3839597790574766e-14
    vertex 4.439294981728722 -82.70066275756012 3.3839597790574766e-14
    vertex 4.439294981728722 -114.63419616047247 3.3839597790574766e-14
  endloop
endfacet
facet normal -1.8698763907600536e-16 1.0407789264062102e-16 -1.0
  outer loop
    vertex 4.439294981728722 -114.63419616047247 3.3839597790574766e-14
    vertex 4.439294981728722 -82.70066275756012 3.3839597790574766e-14
    vertex 4.983102126772351 -82.3373024400941 3.3839597790574766e-14
  endloop
endfacet
facet normal -1.8698763907600536e-16 1.0407789264062102e-16 -1.0
  outer loop
    vertex 4.439294981728722 -114.63419616047247 3.3839597790574766e-14
    vertex 4.983102126772351 -82.3373024400941 3.3839597790574766e-14
    vertex 4.983102126772351 -114.99755647793849 3.3839597790574766e-14
  endloop
endfacet
facet normal -1.8698763907600536e-16 1.0407789264062102e-16 -1.0
  outer loop
    vertex 4.983102126772351 -114.99755647793849 3.3839597790574766e-14
    vertex 4.983102126772351 -82.3373024400941 3.3839597790574766e-14
    vertex 5.569684964946863 -82.04803179645987 3.3839597790574766e-14
  endloop
endfacet
facet normal -1.8698763907600536e-16 1.0407789264062102e-16 -1.0
  outer loop
    vertex 4.983102126772351 -114.99755647793849 3.3839597790574766e-14
    vertex 5.569684964946863 -82.04803179645987 3.3839597790574766e-14
    vertex 5.569684964946863 -115.28682712157271 3.3839597790574766e-14
  endloop
endfacet
facet normal -1.8698763907600536e-16 1.0407789264062102e-16 -1.0
  outer loop
    vertex 5.569684964946863 -115.28682712157271 3.3839597790574766e-14
    vertex 5.569684964946863 -82.04803179645987 3.3839597790574766e-14
    vertex 6.189006901259744 -81.83780032757096 3.3839597790574766e-14
  endloop
endfacet
facet normal -1.8698763907600536e-16 1.0407789264062102e-16 -1.0
  outer loop
    vertex 5.569684964946863 -115.28682712157271 3.3839597790574766e-14
    vertex 6.189006901259744 -81.83780032757096 3.3839597790574766e-14
    vertex 6.189006901259744 -115.49705859046158 3.3839597790574766e-14
  endloop
endfacet
facet normal -1.8698763907600536e-16 1.0407789264062102e-16 -1.0
  outer loop
    vertex 6.189006901259744 -115.49705859046158 3.3839597790574766e-14
    vertex 6.189006901259744 -81.83780032757096 3.3839597790574766e-14
    vertex 6.830471165672059 -81.71020515214725 3.3839597790574766e-14
  endloop
endfacet
facet normal -1.8698763907600536e-16 1.0407789264062102e-16 -1.0
  outer loop
    vertex 6.189006901259744 -115.49705859046158 3.3839597790574766e-14
    vertex 6.830471165672059 -81.71020515214725 3.3839597790574766e-14
    vertex 6.830471165672059 -115.62465376588531 3.3839597790574766e-14
  endloop
endfacet
facet normal -1.8698763907600536e-16 1.0407789264062102e-16 -1.0
  outer loop
    vertex 6.830471165672059 -115.62465376588531 3.3839597790574766e-14
    vertex 6.830471165672059 -81.71020515214725 3.3839597790574766e-14
    vertex 7.483102126772324 -81.6674294590163 3.3839597790574766e-14
  endloop
endfacet
facet normal -1.8698763907600536e-16 1.0407789264062102e-16 -1.0
  outer loop
    vertex 6.830471165672059 -115.62465376588531 3.3839597790574766e-14
    vertex 7.483102126772324 -81.6674294590163 3.3839597790574766e-14
    vertex 7.483102126772324 -115.66742945901623 3.3839597790574766e-14
  endloop
endfacet
facet normal -1.8698763907600536e-16 1.0407789264062102e-16 -1.0
  outer loop
    vertex 7.483102126772324 -115.66742945901623 3.3839597790574766e-14
    vertex 7.483102126772324 -81.6674294590163 3.3839597790574766e-14
    vertex 30.48310212677228 -81.6674294590163 3.3839597790574766e-14
  endloop
endfacet
facet normal -1.8698763907600536e-16 1.0407789264062102e-16 -1.0
  outer loop
    vertex 7.483102126772324 -115.66742945901623 3.3839597790574766e-14
    vertex 30.48310212677228 -81.6674294590163 3.3839597790574766e-14
    vertex 35.86370446421585 -95.58084662084173 2.255973186038318e-14
  endloop
endfacet
facet normal -1.8698763907600536e-16 1.0407789264062102e-16 -1.0
  outer loop
    vertex 7.483102126772324 -115.66742945901623 3.3839597790574766e-14
    vertex 35.86370446421585 -95.58084662084173 2.255973186038318e-14
    vertex 36.15297510785009 -96.16742945901628 2.255973186038318e-14
  endloop
endfacet
facet normal -1.8698763907600536e-16 1.0407789264062102e-16 -1.0
  outer loop
    vertex 7.483102126772324 -115.66742945901623 3.3839597790574766e-14
    vertex 36.15297510785009 -96.16742945901628 2.255973186038318e-14
    vertex 36.51633542531611 -96.71123660405988 2.255973186038318e-14
  endloop
endfacet
facet normal -1.8698763907600536e-16 1.0407789264062102e-16 -1.0
  outer loop
    vertex 7.483102126772324 -115.66742945901623 3.3839597790574766e-14
    vertex 36.51633542531611 -96.71123660405988 2.255973186038318e-14
    vertex 36.94756822083954 -97.20296336494901 2.255973186038318e-14
  endloop
endfacet
facet normal -1.8698763907600536e-16 1.0407789264062102e-16 -1.0
  outer loop
    vertex 7.483102126772324 -115.66742945901623 3.3839597790574766e-14
    vertex 36.94756822083954 -97.20296336494901 2.255973186038318e-14
    vertex 37.43929498172868 -97.63419616047246 2.255973186038318e-14
  endloop
endfacet
facet normal -1.8698763907600536e-16 1.0407789264062102e-16 -1.0
  outer loop
    vertex 7.483102126772324 -115.66742945901623 3.3839597790574766e-14
    vertex 37.43929498172868 -97.63419616047246 2.255973186038318e-14
    vertex 60.48310212677232 -115.66742945901623 2.255973186038318e-14
  endloop
endfacet
facet normal -1.8698763907600536e-16 1.0407789264062102e-16 -1.0
  outer loop
    vertex 35.86370446421585 -95.58084662084173 2.255973186038318e-14
    vertex 30.48310212677228 -81.6674294590163 3.3839597790574766e-14
    vertex 31.135733087872534 -81.71020515214725 3.3839597790574766e-14
  endloop
endfacet
facet normal -1.8698763907600536e-16 1.0407789264062102e-16 -1.0
  outer loop
    vertex 35.86370446421585 -95.58084662084173 2.255973186038318e-14
    vertex 31.135733087872534 -81.71020515214725 3.3839597790574766e-14
    vertex 35.65347299532694 -94.96152468452888 2.255973186038318e-14
  endloop
endfacet
facet normal -1.8698763907600536e-16 1.0407789264062102e-16 -1.0
  outer loop
    vertex 35.65347299532694 -94.96152468452888 2.255973186038318e-14
    vertex 31.135733087872534 -81.71020515214725 3.3839597790574766e-14
    vertex 31.777197352284883 -81.83780032757096 3.3839597790574766e-14
  endloop
endfacet
facet normal -1.8698763907600536e-16 1.0407789264062102e-16 -1.0
  outer loop
    vertex 35.65347299532694 -94.96152468452888 2.255973186038318e-14
    vertex 31.777197352284883 -81.83780032757096 3.3839597790574766e-14
    vertex 32.39651928859773 -82.04803179645987 3.3839597790574766e-14
  endloop
endfacet
facet normal -1.8698763907600536e-16 1.0407789264062102e-16 -1.0
  outer loop
    vertex 35.65347299532694 -94.96152468452888 2.255973186038318e-14
    vertex 32.39651928859773 -82.04803179645987 3.3839597790574766e-14
    vertex 32.98310212677228 -82.3373024400941 3.3839597790574766e-14
  endloop
endfacet
facet normal -1.8698763907600536e-16 1.0407789264062102e-16 -1.0
  outer loop
    vertex 35.65347299532694 -94.96152468452888 2.255973186038318e-14
    vertex 32.98310212677228 -82.3373024400941 3.3839597790574766e-14
    vertex 35.525877819903236 -94.32006042011655 2.255973186038318e-14
  endloop
endfacet
facet normal -1.8698763907600536e-16 1.0407789264062102e-16 -1.0
  outer loop
    vertex 35.525877819903236 -94.32006042011655 2.255973186038318e-14
    vertex 32.98310212677228 -82.3373024400941 3.3839597790574766e-14
    vertex 33.52690927181588 -82.70066275756012 3.3839597790574766e-14
  endloop
endfacet
facet normal -1.8698763907600536e-16 1.0407789264062102e-16 -1.0
  outer loop
    vertex 35.525877819903236 -94.32006042011655 2.255973186038318e-14
    vertex 33.52690927181588 -82.70066275756012 3.3839597790574766e-14
    vertex 34.018636032705025 -83.13189555308357 3.3839597790574766e-14
  endloop
endfacet
facet normal -1.8698763907600536e-16 1.0407789264062102e-16 -1.0
  outer loop
    vertex 35.525877819903236 -94.32006042011655 2.255973186038318e-14
    vertex 34.018636032705025 -83.13189555308357 3.3839597790574766e-14
    vertex 34.44986882822846 -83.6236223139727 3.3839597790574766e-14
  endloop
endfacet
facet normal -1.8698763907600536e-16 1.0407789264062102e-16 -1.0
  outer loop
    vertex 35.525877819903236 -94.32006042011655 2.255973186038318e-14
    vertex 34.44986882822846 -83.6236223139727 3.3839597790574766e-14
    vertex 34.81322914569448 -84.16742945901629 3.3839597790574766e-14
  endloop
endfacet
facet normal -1.8698763907600536e-16 1.0407789264062102e-16 -1.0
  outer loop
    vertex 35.525877819903236 -94.32006042011655 2.255973186038318e-14
    vertex 34.81322914569448 -84.16742945901629 3.3839597790574766e-14
    vertex 35.48310212677228 -93.66742945901628 2.255973186038318e-14
  endloop
endfacet
facet normal -1.8698763907600536e-16 1.0407789264062102e-16 -1.0
  outer loop
    vertex 35.48310212677228 -93.66742945901628 2.255973186038318e-14
    vertex 34.81322914569448 -84.16742945901629 3.3839597790574766e-14
    vertex 35.10249978932872 -84.75401229719085 3.3839597790574766e-14
  endloop
endfacet
facet normal -1.8698763907600536e-16 1.0407789264062102e-16 -1.0
  outer loop
    vertex 35.48310212677228 -93.66742945901628 2.255973186038318e-14
    vertex 35.10249978932872 -84.75401229719085 3.3839597790574766e-14
    vertex 35.312731258217624 -85.3733342335037 3.3839597790574766e-14
  endloop
endfacet
facet normal -1.8698763907600536e-16 1.0407789264062102e-16 -1.0
  outer loop
    vertex 35.48310212677228 -93.66742945901628 2.255973186038318e-14
    vertex 35.312731258217624 -85.3733342335037 3.3839597790574766e-14
    vertex 35.44032643364134 -86.01479849791605 3.3839597790574766e-14
  endloop
endfacet
facet normal -1.8698763907600536e-16 1.0407789264062102e-16 -1.0
  outer loop
    vertex 35.48310212677228 -93.66742945901628 2.255973186038318e-14
    vertex 35.44032643364134 -86.01479849791605 3.3839597790574766e-14
    vertex 35.48310212677228 -86.6674294590163 3.3839597790574766e-14
  endloop
endfacet
facet normal -1.8698763907600536e-16 1.0407789264062102e-16 -1.0
  outer loop
    vertex 60.48310212677232 -115.66742945901623 2.255973186038318e-14
    vertex 37.43929498172868 -97.63419616047246 2.255973186038318e-14
    vertex 37.98310212677228 -97.99755647793847 2.255973186038318e-14
  endloop
endfacet
facet normal -1.8698763907600536e-16 1.0407789264062102e-16 -1.0
  outer loop
    vertex 60.48310212677232 -115.66742945901623 2.255973186038318e-14
    vertex 37.98310212677228 -97.99755647793847 2.255973186038318e-14
    vertex 38.56968496494683 -98.28682712157271 2.255973186038318e-14
  endloop
endfacet
facet normal -1.8698763907600536e-16 1.0407789264062102e-16 -1.0
  outer loop
    vertex 60.48310212677232 -115.66742945901623 2.255973186038318e-14
    vertex 38.56968496494683 -98.28682712157271 2.255973186038318e-14
    vertex 39.18900690125968 -98.49705859046162 2.255973186038318e-14
  endloop
endfacet
facet normal -1.8698763907600536e-16 1.0407789264062102e-16 -1.0
  outer loop
    vertex 60.48310212677232 -115.66742945901623 2.255973186038318e-14
    vertex 39.18900690125968 -98.49705859046162 2.255973186038318e-14
    vertex 39.83047116567202 -98.62465376588533 2.255973186038318e-14
  endloop
endfacet
facet normal -1.8698763907600536e-16 1.0407789264062102e-16 -1.0
  outer loop
    vertex 60.48310212677232 -115.66742945901623 2.255973186038318e-14
    vertex 39.83047116567202 -98.62465376588533 2.255973186038318e-14
    vertex 40.48310212677229 -98.66742945901628 2.255973186038318e-14
  endloop
endfacet
facet normal -1.8698763907600536e-16 1.0407789264062102e-16 -1.0
  outer loop
    vertex 60.48310212677232 -115.66742945901623 2.255973186038318e-14
    vertex 40.48310212677229 -98.66742945901628 2.255973186038318e-14
    vertex 60.48310212677232 -98.66742945901628 3.3839597790574766e-14
  endloop
endfacet
facet normal -0.9914448613738097 0.13052619222005654 1.989728249229942e-16
  outer loop
    vertex 2.5258778199032674 -86.01479849791603 2.0000000000000338
    vertex 2.4831021267723385 -86.6674294590163 3.3839597790574766e-14
    vertex 2.483102126772339 -86.6674294590163 2.0000000000000338
  endloop
endfacet
facet normal -0.9978589232386055 0.0654031292301124 1.93394304049684e-16
  outer loop
    vertex 2.4831021267723385 -86.6674294590163 3.3839597790574766e-14
    vertex 2.5258778199032674 -86.01479849791603 2.0000000000000338
    vertex 2.525877819903267 -86.01479849791603 3.3839597790574766e-14
  endloop
endfacet
facet normal -0.9659258262890632 0.2588190451025393 2.0755353056986175e-16
  outer loop
    vertex 2.6534729953270033 -85.3733342335037 2.0000000000000338
    vertex 2.525877819903267 -86.01479849791603 3.3839597790574766e-14
    vertex 2.5258778199032674 -86.01479849791603 2.0000000000000338
  endloop
endfacet
facet normal -0.9914448613738097 0.13052619222005654 1.989728249229942e-16
  outer loop
    vertex 2.525877819903267 -86.01479849791603 3.3839597790574766e-14
    vertex 2.6534729953270033 -85.3733342335037 2.0000000000000338
    vertex 2.653472995327003 -85.3733342335037 3.3839597790574766e-14
  endloop
endfacet
facet normal -0.923879532511283 0.38268343236509866 2.125829377639674e-16
  outer loop
    vertex 2.8637044642159135 -84.75401229719084 2.0000000000000338
    vertex 2.653472995327003 -85.3733342335037 3.3839597790574766e-14
    vertex 2.6534729953270033 -85.3733342335037 2.0000000000000338
  endloop
endfacet
facet normal -0.9659258262890632 0.2588190451025393 2.0755353056986175e-16
  outer loop
    vertex 2.653472995327003 -85.3733342335037 3.3839597790574766e-14
    vertex 2.8637044642159135 -84.75401229719084 2.0000000000000338
    vertex 2.863704464215913 -84.75401229719084 3.3839597790574766e-14
  endloop
endfacet
facet normal -0.8660254037844345 0.5000000000000073 2.139749919538069e-16
  outer loop
    vertex 3.152975107850162 -84.1674294590163 2.0000000000000338
    vertex 2.863704464215913 -84.75401229719084 3.3839597790574766e-14
    vertex 2.8637044642159135 -84.75401229719084 2.0000000000000338
  endloop
endfacet
facet normal -0.923879532511283 0.38268343236509866 2.125829377639674e-16
  outer loop
    vertex 2.863704464215913 -84.75401229719084 3.3839597790574766e-14
    vertex 3.152975107850162 -84.1674294590163 2.0000000000000338
    vertex 3.1529751078501618 -84.1674294590163 3.3839597790574766e-14
  endloop
endfacet
facet normal -0.7933533402912532 0.6087614290086972 2.1170587470624232e-16
  outer loop
    vertex 3.516335425316179 -83.6236223139727 2.0000000000000338
    vertex 3.1529751078501618 -84.1674294590163 3.3839597790574766e-14
    vertex 3.152975107850162 -84.1674294590163 2.0000000000000338
  endloop
endfacet
facet normal -0.8660254037844345 0.5000000000000073 2.139749919538069e-16
  outer loop
    vertex 3.1529751078501618 -84.1674294590163 3.3839597790574766e-14
    vertex 3.516335425316179 -83.6236223139727 2.0000000000000338
    vertex 3.516335425316178 -83.6236223139727 3.3839597790574766e-14
  endloop
endfacet
facet normal -0.707106781186559 0.7071067811865359 2.0581441124649556e-16
  outer loop
    vertex 3.947568220839578 -83.13189555308355 2.0000000000000338
    vertex 3.516335425316178 -83.6236223139727 3.3839597790574766e-14
    vertex 3.516335425316179 -83.6236223139727 2.0000000000000338
  endloop
endfacet
facet normal -0.7933533402912532 0.6087614290086972 2.1170587470624232e-16
  outer loop
    vertex 3.516335425316178 -83.6236223139727 3.3839597790574766e-14
    vertex 3.947568220839578 -83.13189555308355 2.0000000000000338
    vertex 3.9475682208395773 -83.13189555308355 3.3839597790574766e-14
  endloop
endfacet
facet normal -0.707106781186559 0.7071067811865359 2.0581441124649556e-16
  outer loop
    vertex 3.947568220839578 -83.13189555308355 2.0000000000000338
    vertex 4.439294981728722 -82.70066275756012 3.3839597790574766e-14
    vertex 3.9475682208395773 -83.13189555308355 3.3839597790574766e-14
  endloop
endfacet
facet normal -0.6087614290087026 0.7933533402912492 1.9640140614778324e-16
  outer loop
    vertex 4.439294981728722 -82.70066275756012 3.3839597790574766e-14
    vertex 3.947568220839578 -83.13189555308355 2.0000000000000338
    vertex 4.439294981728722 -82.70066275756012 2.0000000000000338
  endloop
endfacet
facet normal -0.6087614290087026 0.7933533402912492 1.9640140614778324e-16
  outer loop
    vertex 4.439294981728722 -82.70066275756012 2.0000000000000338
    vertex 4.983102126772351 -82.3373024400941 3.3839597790574766e-14
    vertex 4.439294981728722 -82.70066275756012 3.3839597790574766e-14
  endloop
endfacet
facet normal -0.5000000000000057 0.8660254037844354 1.8362791853713066e-16
  outer loop
    vertex 4.983102126772351 -82.3373024400941 3.3839597790574766e-14
    vertex 4.439294981728722 -82.70066275756012 2.0000000000000338
    vertex 4.983102126772351 -82.3373024400941 2.0000000000000338
  endloop
endfacet
facet normal -0.5000000000000057 0.8660254037844354 1.8362791853713066e-16
  outer loop
    vertex 4.983102126772351 -82.3373024400941 2.0000000000000338
    vertex 5.569684964946863 -82.04803179645987 3.3839597790574766e-14
    vertex 4.983102126772351 -82.3373024400941 3.3839597790574766e-14
  endloop
endfacet
facet normal -0.38268343236510055 0.9238795325112822 1.6771250632902869e-16
  outer loop
    vertex 5.569684964946863 -82.04803179645987 3.3839597790574766e-14
    vertex 4.983102126772351 -82.3373024400941 2.0000000000000338
    vertex 5.569684964946864 -82.04803179645987 2.0000000000000338
  endloop
endfacet
facet normal -0.38268343236510055 0.9238795325112822 1.6771250632902869e-16
  outer loop
    vertex 5.569684964946864 -82.04803179645987 2.0000000000000338
    vertex 6.189006901259744 -81.83780032757096 3.3839597790574766e-14
    vertex 5.569684964946863 -82.04803179645987 3.3839597790574766e-14
  endloop
endfacet
facet normal -0.25881904510251263 0.9659258262890705 1.48927486638942e-16
  outer loop
    vertex 6.189006901259744 -81.83780032757096 3.3839597790574766e-14
    vertex 5.569684964946864 -82.04803179645987 2.0000000000000338
    vertex 6.189006901259744 -81.83780032757096 2.0000000000000338
  endloop
endfacet
facet normal -0.25881904510251263 0.9659258262890705 1.48927486638942e-16
  outer loop
    vertex 6.189006901259744 -81.83780032757096 2.0000000000000338
    vertex 6.830471165672059 -81.71020515214725 3.3839597790574766e-14
    vertex 6.189006901259744 -81.83780032757096 3.3839597790574766e-14
  endloop
endfacet
facet normal -0.1305261922200518 0.9914448613738105 1.2759427636196718e-16
  outer loop
    vertex 6.830471165672059 -81.71020515214725 3.3839597790574766e-14
    vertex 6.189006901259744 -81.83780032757096 2.0000000000000338
    vertex 6.830471165672059 -81.71020515214725 2.0000000000000338
  endloop
endfacet
facet normal -0.1305261922200518 0.9914448613738105 1.2759427636196718e-16
  outer loop
    vertex 6.830471165672059 -81.71020515214725 2.0000000000000338
    vertex 7.483102126772324 -81.6674294590163 3.3839597790574766e-14
    vertex 6.830471165672059 -81.71020515214725 3.3839597790574766e-14
  endloop
endfacet
facet normal -0.06540312923014675 0.9978589232386033 1.1608463060624104e-16
  outer loop
    vertex 7.483102126772324 -81.6674294590163 3.3839597790574766e-14
    vertex 6.830471165672059 -81.71020515214725 2.0000000000000338
    vertex 7.483102126772324 -81.6674294590163 2.0000000000000338
  endloop
endfacet
facet normal 0.0 1.0 1.0407789264062103e-16
  outer loop
    vertex 7.483102126772324 -81.6674294590163 2.0000000000000338
    vertex 30.48310212677228 -81.6674294590163 3.3839597790574766e-14
    vertex 7.483102126772324 -81.6674294590163 3.3839597790574766e-14
  endloop
endfacet
facet normal 0.0 1.0 1.0407789264062103e-16
  outer loop
    vertex 30.48310212677228 -81.6674294590163 3.3839597790574766e-14
    vertex 7.483102126772324 -81.6674294590163 2.0000000000000338
    vertex 30.48310212677228 -81.6674294590163 2.0000000000000338
  endloop
endfacet
facet normal 0.06540312923014788 0.9978589232386031 9.16254771603848e-17
  outer loop
    vertex 30.48310212677228 -81.6674294590163 2.0000000000000338
    vertex 31.135733087872534 -81.71020515214725 3.3839597790574766e-14
    vertex 30.48310212677228 -81.6674294590163 3.3839597790574766e-14
  endloop
endfacet
facet normal 0.1305261922200557 0.9914448613738099 7.878070732034969e-17
  outer loop
    vertex 31.135733087872534 -81.71020515214725 3.3839597790574766e-14
    vertex 30.48310212677228 -81.6674294590163 2.0000000000000338
    vertex 31.135733087872534 -81.71020515214725 2.0000000000000338
  endloop
endfacet
facet normal 0.1305261922200557 0.9914448613738099 7.878070732034969e-17
  outer loop
    vertex 31.135733087872534 -81.71020515214725 2.0000000000000338
    vertex 31.777197352284883 -81.83780032757096 3.3839597790574766e-14
    vertex 31.135733087872534 -81.71020515214725 3.3839597790574766e-14
  endloop
endfacet
facet normal 0.2588190451025161 0.9659258262890696 5.21355622556913e-17
  outer loop
    vertex 31.777197352284883 -81.83780032757096 3.3839597790574766e-14
    vertex 31.135733087872534 -81.71020515214725 2.0000000000000338
    vertex 31.777197352284883 -81.83780032757096 2.0000000000000338
  endloop
endfacet
facet normal 0.2588190451025161 0.9659258262890696 5.21355622556913e-17
  outer loop
    vertex 31.777197352284883 -81.83780032757096 2.0000000000000338
    vertex 32.39651928859773 -82.04803179645987 3.3839597790574766e-14
    vertex 31.777197352284883 -81.83780032757096 3.3839597790574766e-14
  endloop
endfacet
facet normal 0.3826834323650812 0.9238795325112903 2.459836326612848e-17
  outer loop
    vertex 32.39651928859773 -82.04803179645987 3.3839597790574766e-14
    vertex 31.777197352284883 -81.83780032757096 2.0000000000000338
    vertex 32.39651928859773 -82.04803179645987 2.0000000000000338
  endloop
endfacet
facet normal 0.3826834323650812 0.9238795325112903 2.459836326612848e-17
  outer loop
    vertex 32.39651928859773 -82.04803179645987 2.0000000000000338
    vertex 32.98310212677228 -82.3373024400941 3.3839597790574766e-14
    vertex 32.39651928859773 -82.04803179645987 3.3839597790574766e-14
  endloop
endfacet
facet normal 0.500000000000004 0.8660254037844363 -3.359720538876382e-18
  outer loop
    vertex 32.98310212677228 -82.3373024400941 3.3839597790574766e-14
    vertex 32.39651928859773 -82.04803179645987 2.0000000000000338
    vertex 32.98310212677228 -82.3373024400941 2.0000000000000338
  endloop
endfacet
facet normal 0.500000000000004 0.8660254037844363 -3.359720538876382e-18
  outer loop
    vertex 32.98310212677228 -82.3373024400941 2.0000000000000338
    vertex 33.52690927181588 -82.70066275756012 3.3839597790574766e-14
    vertex 32.98310212677228 -82.3373024400941 3.3839597790574766e-14
  endloop
endfacet
facet normal 0.6087614290087251 0.7933533402912318 -3.126031859396785e-17
  outer loop
    vertex 33.52690927181588 -82.70066275756012 3.3839597790574766e-14
    vertex 32.98310212677228 -82.3373024400941 2.0000000000000338
    vertex 33.52690927181588 -82.70066275756012 2.0000000000000338
  endloop
endfacet
facet normal 0.6087614290087251 0.7933533402912318 -3.126031859396785e-17
  outer loop
    vertex 33.52690927181588 -82.70066275756012 2.0000000000000338
    vertex 34.018636032705025 -83.13189555308357 3.3839597790574766e-14
    vertex 33.52690927181588 -82.70066275756012 3.3839597790574766e-14
  endloop
endfacet
facet normal 0.7071067811865455 0.7071067811865495 -5.862604393091687e-17
  outer loop
    vertex 34.018636032705025 -83.13189555308357 3.3839597790574766e-14
    vertex 33.52690927181588 -82.70066275756012 2.0000000000000338
    vertex 34.018636032705025 -83.13189555308357 2.0000000000000338
  endloop
endfacet
facet normal 0.7071067811865455 0.7071067811865495 -5.862604393091687e-17
  outer loop
    vertex 34.018636032705025 -83.13189555308357 3.3839597790574766e-14
    vertex 34.44986882822846 -83.6236223139727 2.0000000000000338
    vertex 34.44986882822846 -83.6236223139727 3.3839597790574766e-14
  endloop
endfacet
facet normal 0.7933533402912328 0.6087614290087235 -8.498866140199938e-17
  outer loop
    vertex 34.44986882822846 -83.6236223139727 2.0000000000000338
    vertex 34.018636032705025 -83.13189555308357 3.3839597790574766e-14
    vertex 34.018636032705025 -83.13189555308357 2.0000000000000338
  endloop
endfacet
facet normal 0.7933533402912328 0.6087614290087235 -8.498866140199938e-17
  outer loop
    vertex 34.44986882822846 -83.6236223139727 3.3839597790574766e-14
    vertex 34.81322914569448 -84.16742945901629 2.0000000000000338
    vertex 34.81322914569448 -84.16742945901629 3.3839597790574766e-14
  endloop
endfacet
facet normal 0.8660254037844378 0.5000000000000016 -1.098970993131856e-16
  outer loop
    vertex 34.81322914569448 -84.16742945901629 2.0000000000000338
    vertex 34.44986882822846 -83.6236223139727 3.3839597790574766e-14
    vertex 34.44986882822846 -83.6236223139727 2.0000000000000338
  endloop
endfacet
facet normal 0.8660254037844378 0.5000000000000016 -1.098970993131856e-16
  outer loop
    vertex 34.81322914569448 -84.16742945901629 3.3839597790574766e-14
    vertex 35.10249978932872 -84.75401229719085 2.0000000000000338
    vertex 35.10249978932872 -84.75401229719085 3.3839597790574766e-14
  endloop
endfacet
facet normal 0.923879532511288 0.38268343236508684 -1.3292516738589142e-16
  outer loop
    vertex 35.10249978932872 -84.75401229719085 2.0000000000000338
    vertex 34.81322914569448 -84.16742945901629 3.3839597790574766e-14
    vertex 34.81322914569448 -84.16742945901629 2.0000000000000338
  endloop
endfacet
facet normal 0.923879532511288 0.38268343236508684 -1.3292516738589142e-16
  outer loop
    vertex 35.10249978932872 -84.75401229719085 3.3839597790574766e-14
    vertex 35.312731258217624 -85.3733342335037 2.0000000000000338
    vertex 35.312731258217624 -85.3733342335037 3.3839597790574766e-14
  endloop
endfacet
facet normal 0.9659258262890684 0.2588190451025199 -1.5367884899080443e-16
  outer loop
    vertex 35.312731258217624 -85.3733342335037 2.0000000000000338
    vertex 35.10249978932872 -84.75401229719085 3.3839597790574766e-14
    vertex 35.10249978932872 -84.75401229719085 2.0000000000000338
  endloop
endfacet
facet normal 0.9659258262890684 0.2588190451025199 -1.5367884899080443e-16
  outer loop
    vertex 35.312731258217624 -85.3733342335037 3.3839597790574766e-14
    vertex 35.44032643364134 -86.01479849791605 2.0000000000000338
    vertex 35.44032643364134 -86.01479849791605 3.3839597790574766e-14
  endloop
endfacet
facet normal 0.9914448613738104 0.13052619222005143 -1.7180304288165867e-16
  outer loop
    vertex 35.44032643364134 -86.01479849791605 2.0000000000000338
    vertex 35.312731258217624 -85.3733342335037 3.3839597790574766e-14
    vertex 35.312731258217624 -85.3733342335037 2.0000000000000338
  endloop
endfacet
facet normal 0.9914448613738104 0.13052619222005143 -1.7180304288165867e-16
  outer loop
    vertex 35.44032643364134 -86.01479849791605 3.3839597790574766e-14
    vertex 35.48310212677228 -86.6674294590163 2.0000000000000338
    vertex 35.48310212677228 -86.6674294590163 3.3839597790574766e-14
  endloop
endfacet
facet normal 0.9978589232386037 0.06540312923013929 -1.7978026432493628e-16
  outer loop
    vertex 35.48310212677228 -86.6674294590163 2.0000000000000338
    vertex 35.44032643364134 -86.01479849791605 3.3839597790574766e-14
    vertex 35.44032643364134 -86.01479849791605 2.0000000000000338
  endloop
endfacet
facet normal 1.0 3.013136427686288e-31 -1.8698763907600536e-16
  outer loop
    vertex 35.48310212677228 -86.6674294590163 3.3839597790574766e-14
    vertex 35.48310212677228 -93.66742945901628 2.000000000000022
    vertex 35.48310212677228 -93.66742945901628 2.255973186038318e-14
  endloop
endfacet
facet normal 1.0 3.013136427686288e-31 -1.8698763907600536e-16
  outer loop
    vertex 35.48310212677228 -93.66742945901628 2.000000000000022
    vertex 35.48310212677228 -86.6674294590163 3.3839597790574766e-14
    vertex 35.48310212677228 -86.6674294590163 2.0000000000000338
  endloop
endfacet
facet normal 0.9978589232386033 0.06540312923014675 -1.7978026432493545e-16
  outer loop
    vertex 35.48310212677228 -93.66742945901628 2.255973186038318e-14
    vertex 35.525877819903236 -94.32006042011655 2.000000000000022
    vertex 35.525877819903236 -94.32006042011655 2.255973186038318e-14
  endloop
endfacet
facet normal 0.9914448613738104 0.13052619222005266 -1.7180304288165857e-16
  outer loop
    vertex 35.525877819903236 -94.32006042011655 2.000000000000022
    vertex 35.48310212677228 -93.66742945901628 2.255973186038318e-14
    vertex 35.48310212677228 -93.66742945901628 2.000000000000022
  endloop
endfacet
facet normal 0.9914448613738104 0.13052619222005266 -1.7180304288165857e-16
  outer loop
    vertex 35.525877819903236 -94.32006042011655 2.255973186038318e-14
    vertex 35.65347299532694 -94.96152468452888 2.000000000000022
    vertex 35.65347299532694 -94.96152468452888 2.255973186038318e-14
  endloop
endfacet
facet normal 0.9659258262890691 0.2588190451025175 -1.5367884899080482e-16
  outer loop
    vertex 35.65347299532694 -94.96152468452888 2.000000000000022
    vertex 35.525877819903236 -94.32006042011655 2.255973186038318e-14
    vertex 35.525877819903236 -94.32006042011655 2.000000000000022
  endloop
endfacet
facet normal 0.9659258262890691 0.2588190451025175 -1.5367884899080482e-16
  outer loop
    vertex 35.65347299532694 -94.96152468452888 2.255973186038318e-14
    vertex 35.86370446421585 -95.58084662084173 2.000000000000022
    vertex 35.86370446421585 -95.58084662084173 2.255973186038318e-14
  endloop
endfacet
facet normal 0.9238795325112865 0.3826834323650904 -1.3292516738589078e-16
  outer loop
    vertex 35.86370446421585 -95.58084662084173 2.000000000000022
    vertex 35.65347299532694 -94.96152468452888 2.255973186038318e-14
    vertex 35.65347299532694 -94.96152468452888 2.000000000000022
  endloop
endfacet
facet normal 0.9238795325112865 0.3826834323650904 -1.3292516738589078e-16
  outer loop
    vertex 35.86370446421585 -95.58084662084173 2.255973186038318e-14
    vertex 36.15297510785009 -96.16742945901628 2.000000000000022
    vertex 36.15297510785009 -96.16742945901628 2.255973186038318e-14
  endloop
endfacet
facet normal 0.8660254037844384 0.5000000000000007 -1.098970993131858e-16
  outer loop
    vertex 36.15297510785009 -96.16742945901628 2.000000000000022
    vertex 35.86370446421585 -95.58084662084173 2.255973186038318e-14
    vertex 35.86370446421585 -95.58084662084173 2.000000000000022
  endloop
endfacet
facet normal 0.8660254037844384 0.5000000000000007 -1.098970993131858e-16
  outer loop
    vertex 36.15297510785009 -96.16742945901628 2.255973186038318e-14
    vertex 36.51633542531611 -96.71123660405988 2.000000000000022
    vertex 36.51633542531611 -96.71123660405988 2.255973186038318e-14
  endloop
endfacet
facet normal 0.7933533402912358 0.6087614290087197 -8.49886614020003e-17
  outer loop
    vertex 36.51633542531611 -96.71123660405988 2.000000000000022
    vertex 36.15297510785009 -96.16742945901628 2.255973186038318e-14
    vertex 36.15297510785009 -96.16742945901628 2.000000000000022
  endloop
endfacet
facet normal 0.7933533402912358 0.6087614290087197 -8.49886614020003e-17
  outer loop
    vertex 36.51633542531611 -96.71123660405988 2.255973186038318e-14
    vertex 36.94756822083954 -97.20296336494901 2.000000000000022
    vertex 36.94756822083954 -97.20296336494901 2.255973186038318e-14
  endloop
endfacet
facet normal 0.7071067811865476 0.7071067811865476 -5.862604393091746e-17
  outer loop
    vertex 36.94756822083954 -97.20296336494901 2.000000000000022
    vertex 36.51633542531611 -96.71123660405988 2.255973186038318e-14
    vertex 36.51633542531611 -96.71123660405988 2.000000000000022
  endloop
endfacet
facet normal 0.7071067811865476 0.7071067811865476 -5.862604393091746e-17
  outer loop
    vertex 36.94756822083954 -97.20296336494901 2.000000000000022
    vertex 37.43929498172868 -97.63419616047246 2.255973186038318e-14
    vertex 36.94756822083954 -97.20296336494901 2.255973186038318e-14
  endloop
endfacet
facet normal 0.6087614290087217 0.7933533402912345 -3.1260318593966924e-17
  outer loop
    vertex 37.43929498172868 -97.63419616047246 2.255973186038318e-14
    vertex 36.94756822083954 -97.20296336494901 2.000000000000022
    vertex 37.43929498172868 -97.63419616047246 2.000000000000022
  endloop
endfacet
facet normal 0.6087614290087217 0.7933533402912345 -3.1260318593966924e-17
  outer loop
    vertex 37.43929498172868 -97.63419616047246 2.000000000000022
    vertex 37.98310212677228 -97.99755647793847 2.255973186038318e-14
    vertex 37.43929498172868 -97.63419616047246 2.255973186038318e-14
  endloop
endfacet
facet normal 0.5000000000000044 0.866025403784436 -3.3597205388765017e-18
  outer loop
    vertex 37.98310212677228 -97.99755647793847 2.255973186038318e-14
    vertex 37.43929498172868 -97.63419616047246 2.000000000000022
    vertex 37.98310212677228 -97.99755647793847 2.000000000000022
  endloop
endfacet
facet normal 0.5000000000000044 0.866025403784436 -3.3597205388765017e-18
  outer loop
    vertex 37.98310212677228 -97.99755647793847 2.000000000000022
    vertex 38.56968496494683 -98.28682712157271 2.255973186038318e-14
    vertex 37.98310212677228 -97.99755647793847 2.255973186038318e-14
  endloop
endfacet
facet normal 0.38268343236508834 0.9238795325112873 2.459836326612683e-17
  outer loop
    vertex 38.56968496494683 -98.28682712157271 2.255973186038318e-14
    vertex 37.98310212677228 -97.99755647793847 2.000000000000022
    vertex 38.56968496494683 -98.28682712157271 2.000000000000022
  endloop
endfacet
facet normal 0.38268343236508834 0.9238795325112873 2.459836326612683e-17
  outer loop
    vertex 38.56968496494683 -98.28682712157271 2.000000000000022
    vertex 39.18900690125968 -98.49705859046162 2.255973186038318e-14
    vertex 38.56968496494683 -98.28682712157271 2.255973186038318e-14
  endloop
endfacet
facet normal 0.25881904510251685 0.9659258262890693 5.2135562255691114e-17
  outer loop
    vertex 39.18900690125968 -98.49705859046162 2.255973186038318e-14
    vertex 38.56968496494683 -98.28682712157271 2.000000000000022
    vertex 39.18900690125968 -98.49705859046162 2.000000000000022
  endloop
endfacet
facet normal 0.25881904510251685 0.9659258262890693 5.2135562255691114e-17
  outer loop
    vertex 39.18900690125968 -98.49705859046162 2.000000000000022
    vertex 39.83047116567202 -98.62465376588533 2.255973186038318e-14
    vertex 39.18900690125968 -98.49705859046162 2.255973186038318e-14
  endloop
endfacet
facet normal 0.13052619222005601 0.9914448613738098 7.878070732034963e-17
  outer loop
    vertex 39.83047116567202 -98.62465376588533 2.255973186038318e-14
    vertex 39.18900690125968 -98.49705859046162 2.000000000000022
    vertex 39.83047116567202 -98.62465376588533 2.000000000000022
  endloop
endfacet
facet normal 0.13052619222005601 0.9914448613738098 7.878070732034963e-17
  outer loop
    vertex 39.83047116567202 -98.62465376588533 2.000000000000022
    vertex 40.48310212677229 -98.66742945901628 2.255973186038318e-14
    vertex 39.83047116567202 -98.62465376588533 2.255973186038318e-14
  endloop
endfacet
facet normal 0.06540312923014675 0.9978589232386033 9.162547716038502e-17
  outer loop
    vertex 40.48310212677229 -98.66742945901628 2.255973186038318e-14
    vertex 39.83047116567202 -98.62465376588533 2.000000000000022
    vertex 40.48310212677229 -98.66742945901628 2.000000000000022
  endloop
endfacet
facet normal -5.639932965095784e-16 1.0 1.0407789264062113e-16
  outer loop
    vertex 40.48310212677229 -98.66742945901628 2.000000000000022
    vertex 60.48310212677232 -98.66742945901628 3.3839597790574766e-14
    vertex 40.48310212677229 -98.66742945901628 2.255973186038318e-14
  endloop
endfacet
facet normal -5.639932965095784e-16 1.0 1.0407789264062113e-16
  outer loop
    vertex 60.48310212677232 -98.66742945901628 3.3839597790574766e-14
    vertex 40.48310212677229 -98.66742945901628 2.000000000000022
    vertex 60.48310212677232 -98.66742945901628 2.0000000000000338
  endloop
endfacet
facet normal 1.0 1.240703234929646e-31 -1.8698763907600539e-16
  outer loop
    vertex 60.48310212677232 -98.66742945901628 3.3839597790574766e-14
    vertex 60.48310212677232 -115.66742945901623 2.000000000000022
    vertex 60.48310212677232 -115.66742945901623 2.255973186038318e-14
  endloop
endfacet
facet normal 1.0 1.240703234929646e-31 -1.8698763907600539e-16
  outer loop
    vertex 60.48310212677232 -115.66742945901623 2.000000000000022
    vertex 60.48310212677232 -98.66742945901628 3.3839597790574766e-14
    vertex 60.48310212677232 -98.66742945901628 2.0000000000000338
  endloop
endfacet
facet normal -2.2150654250624137e-32 -1.0 -1.0407789264062102e-16
  outer loop
    vertex 60.48310212677232 -115.66742945901623 2.000000000000022
    vertex 7.483102126772324 -115.66742945901623 3.3839597790574766e-14
    vertex 60.48310212677232 -115.66742945901623 2.255973186038318e-14
  endloop
endfacet
facet normal -2.2150654250624137e-32 -1.0 -1.0407789264062102e-16
  outer loop
    vertex 7.483102126772324 -115.66742945901623 3.3839597790574766e-14
    vertex 60.48310212677232 -115.66742945901623 2.000000000000022
    vertex 7.483102126772324 -115.66742945901623 2.0000000000000338
  endloop
endfacet
facet normal -0.0654031292301124 -0.9978589232386055 -9.162547716039168e-17
  outer loop
    vertex 7.483102126772324 -115.66742945901623 2.0000000000000338
    vertex 6.830471165672059 -115.62465376588531 3.3839597790574766e-14
    vertex 7.483102126772324 -115.66742945901623 3.3839597790574766e-14
  endloop
endfacet
facet normal -0.13052619222005987 -0.9914448613738094 -7.878070732034885e-17
  outer loop
    vertex 6.830471165672059 -115.62465376588531 3.3839597790574766e-14
    vertex 7.483102126772324 -115.66742945901623 2.0000000000000338
    vertex 6.830471165672059 -115.62465376588531 2.0000000000000338
  endloop
endfacet
facet normal -0.13052619222005987 -0.9914448613738094 -7.878070732034885e-17
  outer loop
    vertex 6.830471165672059 -115.62465376588531 2.0000000000000338
    vertex 6.189006901259744 -115.49705859046158 3.3839597790574766e-14
    vertex 6.830471165672059 -115.62465376588531 3.3839597790574766e-14
  endloop
endfacet
facet normal -0.25881904510250553 -0.9659258262890723 -5.213556225569354e-17
  outer loop
    vertex 6.189006901259744 -115.49705859046158 3.3839597790574766e-14
    vertex 6.830471165672059 -115.62465376588531 2.0000000000000338
    vertex 6.189006901259744 -115.49705859046158 2.0000000000000338
  endloop
endfacet
facet normal -0.25881904510250553 -0.9659258262890723 -5.213556225569354e-17
  outer loop
    vertex 6.189006901259744 -115.49705859046158 2.0000000000000338
    vertex 5.569684964946863 -115.28682712157271 3.3839597790574766e-14
    vertex 6.189006901259744 -115.49705859046158 3.3839597790574766e-14
  endloop
endfacet
facet normal -0.38268343236505614 -0.9238795325113006 -2.4598363266134258e-17
  outer loop
    vertex 5.569684964946863 -115.28682712157271 3.3839597790574766e-14
    vertex 6.189006901259744 -115.49705859046158 2.0000000000000338
    vertex 5.569684964946864 -115.28682712157271 2.0000000000000338
  endloop
endfacet
facet normal -0.38268343236505614 -0.9238795325113006 -2.4598363266134267e-17
  outer loop
    vertex 5.569684964946864 -115.28682712157271 2.0000000000000338
    vertex 4.983102126772351 -114.99755647793849 3.3839597790574766e-14
    vertex 5.569684964946863 -115.28682712157271 3.3839597790574766e-14
  endloop
endfacet
facet normal -0.4999999999999923 -0.866025403784443 3.359720538873492e-18
  outer loop
    vertex 4.983102126772351 -114.99755647793849 3.3839597790574766e-14
    vertex 5.569684964946864 -115.28682712157271 2.0000000000000338
    vertex 4.983102126772351 -114.99755647793849 2.0000000000000338
  endloop
endfacet
facet normal -0.4999999999999923 -0.866025403784443 3.359720538873486e-18
  outer loop
    vertex 4.983102126772351 -114.99755647793849 2.0000000000000338
    vertex 4.439294981728722 -114.63419616047247 3.3839597790574766e-14
    vertex 4.983102126772351 -114.99755647793849 3.3839597790574766e-14
  endloop
endfacet
facet normal -0.6087614290087128 -0.7933533402912412 3.126031859396456e-17
  outer loop
    vertex 4.439294981728722 -114.63419616047247 3.3839597790574766e-14
    vertex 4.983102126772351 -114.99755647793849 2.0000000000000338
    vertex 4.439294981728722 -114.63419616047247 2.0000000000000338
  endloop
endfacet
facet normal -0.6087614290087128 -0.7933533402912412 3.126031859396456e-17
  outer loop
    vertex 4.439294981728722 -114.63419616047247 2.0000000000000338
    vertex 3.9475682208395773 -114.20296336494901 3.3839597790574766e-14
    vertex 4.439294981728722 -114.63419616047247 3.3839597790574766e-14
  endloop
endfacet
facet normal -0.7071067811865682 -0.7071067811865268 5.862604393092346e-17
  outer loop
    vertex 3.9475682208395773 -114.20296336494901 3.3839597790574766e-14
    vertex 4.439294981728722 -114.63419616047247 2.0000000000000338
    vertex 3.947568220839578 -114.20296336494901 2.0000000000000338
  endloop
endfacet
facet normal -0.7933533402912532 -0.6087614290086972 8.498866140200589e-17
  outer loop
    vertex 3.516335425316179 -113.71123660405988 2.0000000000000338
    vertex 3.9475682208395773 -114.20296336494901 3.3839597790574766e-14
    vertex 3.947568220839578 -114.20296336494901 2.0000000000000338
  endloop
endfacet
facet normal -0.7071067811865682 -0.7071067811865268 5.862604393092346e-17
  outer loop
    vertex 3.9475682208395773 -114.20296336494901 3.3839597790574766e-14
    vertex 3.516335425316179 -113.71123660405988 2.0000000000000338
    vertex 3.516335425316178 -113.71123660405988 3.3839597790574766e-14
  endloop
endfacet
facet normal -0.8660254037844345 -0.5000000000000073 1.0989709931318438e-16
  outer loop
    vertex 3.152975107850162 -113.16742945901626 2.0000000000000338
    vertex 3.516335425316178 -113.71123660405988 3.3839597790574766e-14
    vertex 3.516335425316179 -113.71123660405988 2.0000000000000338
  endloop
endfacet
facet normal -0.7933533402912532 -0.6087614290086972 8.49886614020059e-17
  outer loop
    vertex 3.516335425316178 -113.71123660405988 3.3839597790574766e-14
    vertex 3.152975107850162 -113.16742945901626 2.0000000000000338
    vertex 3.1529751078501618 -113.16742945901626 3.3839597790574766e-14
  endloop
endfacet
facet normal -0.923879532511281 -0.3826834323651037 1.3292516738588832e-16
  outer loop
    vertex 2.8637044642159135 -112.58084662084173 2.0000000000000338
    vertex 3.1529751078501618 -113.16742945901626 3.3839597790574766e-14
    vertex 3.152975107850162 -113.16742945901626 2.0000000000000338
  endloop
endfacet
facet normal -0.8660254037844345 -0.5000000000000073 1.0989709931318438e-16
  outer loop
    vertex 3.1529751078501618 -113.16742945901626 3.3839597790574766e-14
    vertex 2.8637044642159135 -112.58084662084173 2.0000000000000338
    vertex 2.863704464215913 -112.58084662084173 3.3839597790574766e-14
  endloop
endfacet
facet normal -0.965925826289062 -0.2588190451025446 1.536788489908007e-16
  outer loop
    vertex 2.6534729953270033 -111.9615246845289 2.0000000000000338
    vertex 2.863704464215913 -112.58084662084173 3.3839597790574766e-14
    vertex 2.8637044642159135 -112.58084662084173 2.0000000000000338
  endloop
endfacet
facet normal -0.923879532511281 -0.3826834323651037 1.3292516738588832e-16
  outer loop
    vertex 2.863704464215913 -112.58084662084173 3.3839597790574766e-14
    vertex 2.6534729953270033 -111.9615246845289 2.0000000000000338
    vertex 2.653472995327003 -111.9615246845289 3.3839597790574766e-14
  endloop
endfacet
facet normal -0.9914448613738097 -0.13052619222005654 1.7180304288165803e-16
  outer loop
    vertex 2.5258778199032674 -111.32006042011656 2.0000000000000338
    vertex 2.653472995327003 -111.9615246845289 3.3839597790574766e-14
    vertex 2.6534729953270033 -111.9615246845289 2.0000000000000338
  endloop
endfacet
facet normal -0.965925826289062 -0.2588190451025446 1.5367884899080068e-16
  outer loop
    vertex 2.653472995327003 -111.9615246845289 3.3839597790574766e-14
    vertex 2.5258778199032674 -111.32006042011656 2.0000000000000338
    vertex 2.525877819903267 -111.32006042011656 3.3839597790574766e-14
  endloop
endfacet
facet normal -0.9978589232386055 -0.0654031292301124 1.7978026432493942e-16
  outer loop
    vertex 2.483102126772339 -110.66742945901629 2.0000000000000338
    vertex 2.525877819903267 -111.32006042011656 3.3839597790574766e-14
    vertex 2.5258778199032674 -111.32006042011656 2.0000000000000338
  endloop
endfacet
facet normal -0.9914448613738097 -0.13052619222005654 1.7180304288165803e-16
  outer loop
    vertex 2.525877819903267 -111.32006042011656 3.3839597790574766e-14
    vertex 2.483102126772339 -110.66742945901629 2.0000000000000338
    vertex 2.4831021267723385 -110.66742945901629 3.3839597790574766e-14
  endloop
endfacet
facet normal -1.0 0.0 1.8698763907600536e-16
  outer loop
    vertex 2.483102126772339 -86.6674294590163 2.0000000000000338
    vertex 2.4831021267723385 -110.66742945901629 3.3839597790574766e-14
    vertex 2.483102126772339 -110.66742945901629 2.0000000000000338
  endloop
endfacet
facet normal -1.0 0.0 1.8698763907600536e-16
  outer loop
    vertex 2.4831021267723385 -110.66742945901629 3.3839597790574766e-14
    vertex 2.483102126772339 -86.6674294590163 2.0000000000000338
    vertex 2.4831021267723385 -86.6674294590163 3.3839597790574766e-14
  endloop
endfacet
facet normal 1.8698763907600536e-16 -1.0407789264062102e-16 1.0
  outer loop
    vertex 2.5258778199032674 -111.32006042011656 2.0000000000000338
    vertex 2.483102126772339 -86.6674294590163 2.0000000000000338
    vertex 2.483102126772339 -110.66742945901629 2.0000000000000338
  endloop
endfacet
facet normal 1.8698763907600536e-16 -1.0407789264062102e-16 1.0
  outer loop
    vertex 2.483102126772339 -86.6674294590163 2.0000000000000338
    vertex 2.5258778199032674 -111.32006042011656 2.0000000000000338
    vertex 2.5258778199032674 -86.01479849791603 2.0000000000000338
  endloop
endfacet
facet normal 1.8698763907600536e-16 -1.0407789264062102e-16 1.0
  outer loop
    vertex 2.5258778199032674 -86.01479849791603 2.0000000000000338
    vertex 2.5258778199032674 -111.32006042011656 2.0000000000000338
    vertex 2.6534729953270033 -111.9615246845289 2.0000000000000338
  endloop
endfacet
facet normal 1.8698763907600536e-16 -1.0407789264062102e-16 1.0
  outer loop
    vertex 2.5258778199032674 -86.01479849791603 2.0000000000000338
    vertex 2.6534729953270033 -111.9615246845289 2.0000000000000338
    vertex 2.6534729953270033 -85.3733342335037 2.0000000000000338
  endloop
endfacet
facet normal 1.8698763907600536e-16 -1.0407789264062102e-16 1.0
  outer loop
    vertex 2.6534729953270033 -85.3733342335037 2.0000000000000338
    vertex 2.6534729953270033 -111.9615246845289 2.0000000000000338
    vertex 2.8637044642159135 -112.58084662084173 2.0000000000000338
  endloop
endfacet
facet normal 1.8698763907600536e-16 -1.0407789264062102e-16 1.0
  outer loop
    vertex 2.6534729953270033 -85.3733342335037 2.0000000000000338
    vertex 2.8637044642159135 -112.58084662084173 2.0000000000000338
    vertex 2.8637044642159135 -84.75401229719084 2.0000000000000338
  endloop
endfacet
facet normal 1.8698763907600536e-16 -1.0407789264062102e-16 1.0
  outer loop
    vertex 2.8637044642159135 -84.75401229719084 2.0000000000000338
    vertex 2.8637044642159135 -112.58084662084173 2.0000000000000338
    vertex 3.152975107850162 -113.16742945901626 2.0000000000000338
  endloop
endfacet
facet normal 1.8698763907600536e-16 -1.0407789264062102e-16 1.0
  outer loop
    vertex 2.8637044642159135 -84.75401229719084 2.0000000000000338
    vertex 3.152975107850162 -113.16742945901626 2.0000000000000338
    vertex 3.152975107850162 -84.1674294590163 2.0000000000000338
  endloop
endfacet
facet normal 1.8698763907600536e-16 -1.0407789264062102e-16 1.0
  outer loop
    vertex 3.152975107850162 -84.1674294590163 2.0000000000000338
    vertex 3.152975107850162 -113.16742945901626 2.0000000000000338
    vertex 3.516335425316179 -113.71123660405988 2.0000000000000338
  endloop
endfacet
facet normal 1.8698763907600536e-16 -1.0407789264062102e-16 1.0
  outer loop
    vertex 3.152975107850162 -84.1674294590163 2.0000000000000338
    vertex 3.516335425316179 -113.71123660405988 2.0000000000000338
    vertex 3.516335425316179 -83.6236223139727 2.0000000000000338
  endloop
endfacet
facet normal 1.8698763907600536e-16 -1.0407789264062102e-16 1.0
  outer loop
    vertex 3.516335425316179 -83.6236223139727 2.0000000000000338
    vertex 3.516335425316179 -113.71123660405988 2.0000000000000338
    vertex 3.947568220839578 -114.20296336494901 2.0000000000000338
  endloop
endfacet
facet normal 1.8698763907600536e-16 -1.0407789264062102e-16 1.0
  outer loop
    vertex 3.516335425316179 -83.6236223139727 2.0000000000000338
    vertex 3.947568220839578 -114.20296336494901 2.0000000000000338
    vertex 3.947568220839578 -83.13189555308355 2.0000000000000338
  endloop
endfacet
facet normal 1.8698763907600536e-16 -1.0407789264062102e-16 1.0
  outer loop
    vertex 3.947568220839578 -83.13189555308355 2.0000000000000338
    vertex 3.947568220839578 -114.20296336494901 2.0000000000000338
    vertex 4.439294981728722 -114.63419616047247 2.0000000000000338
  endloop
endfacet
facet normal 1.8698763907600536e-16 -1.0407789264062102e-16 1.0
  outer loop
    vertex 3.947568220839578 -83.13189555308355 2.0000000000000338
    vertex 4.439294981728722 -114.63419616047247 2.0000000000000338
    vertex 4.439294981728722 -82.70066275756012 2.0000000000000338
  endloop
endfacet
facet normal 1.8698763907600536e-16 -1.0407789264062102e-16 1.0
  outer loop
    vertex 4.439294981728722 -82.70066275756012 2.0000000000000338
    vertex 4.439294981728722 -114.63419616047247 2.0000000000000338
    vertex 4.983102126772351 -114.99755647793849 2.0000000000000338
  endloop
endfacet
facet normal 1.8698763907600536e-16 -1.0407789264062102e-16 1.0
  outer loop
    vertex 4.439294981728722 -82.70066275756012 2.0000000000000338
    vertex 4.983102126772351 -114.99755647793849 2.0000000000000338
    vertex 4.983102126772351 -82.3373024400941 2.0000000000000338
  endloop
endfacet
facet normal 1.8698763907600536e-16 -1.0407789264062102e-16 1.0
  outer loop
    vertex 4.983102126772351 -82.3373024400941 2.0000000000000338
    vertex 4.983102126772351 -114.99755647793849 2.0000000000000338
    vertex 5.569684964946864 -115.28682712157271 2.0000000000000338
  endloop
endfacet
facet normal 1.8698763907600536e-16 -1.0407789264062102e-16 1.0
  outer loop
    vertex 4.983102126772351 -82.3373024400941 2.0000000000000338
    vertex 5.569684964946864 -115.28682712157271 2.0000000000000338
    vertex 5.569684964946864 -82.04803179645987 2.0000000000000338
  endloop
endfacet
facet normal 1.8698763907600536e-16 -1.0407789264062102e-16 1.0
  outer loop
    vertex 5.569684964946864 -82.04803179645987 2.0000000000000338
    vertex 5.569684964946864 -115.28682712157271 2.0000000000000338
    vertex 6.189006901259744 -115.49705859046158 2.0000000000000338
  endloop
endfacet
facet normal 1.8698763907600536e-16 -1.0407789264062102e-16 1.0
  outer loop
    vertex 5.569684964946864 -82.04803179645987 2.0000000000000338
    vertex 6.189006901259744 -115.49705859046158 2.0000000000000338
    vertex 6.189006901259744 -81.83780032757096 2.0000000000000338
  endloop
endfacet
facet normal 1.8698763907600536e-16 -1.0407789264062102e-16 1.0
  outer loop
    vertex 6.189006901259744 -81.83780032757096 2.0000000000000338
    vertex 6.189006901259744 -115.49705859046158 2.0000000000000338
    vertex 6.830471165672059 -115.62465376588531 2.0000000000000338
  endloop
endfacet
facet normal 1.8698763907600536e-16 -1.0407789264062102e-16 1.0
  outer loop
    vertex 6.189006901259744 -81.83780032757096 2.0000000000000338
    vertex 6.830471165672059 -115.62465376588531 2.0000000000000338
    vertex 6.830471165672059 -81.71020515214725 2.0000000000000338
  endloop
endfacet
facet normal 1.8698763907600536e-16 -1.0407789264062102e-16 1.0
  outer loop
    vertex 6.830471165672059 -81.71020515214725 2.0000000000000338
    vertex 6.830471165672059 -115.62465376588531 2.0000000000000338
    vertex 7.483102126772324 -115.66742945901623 2.0000000000000338
  endloop
endfacet
facet normal 1.8698763907600536e-16 -1.0407789264062102e-16 1.0
  outer loop
    vertex 6.830471165672059 -81.71020515214725 2.0000000000000338
    vertex 7.483102126772324 -115.66742945901623 2.0000000000000338
    vertex 7.483102126772324 -81.6674294590163 2.0000000000000338
  endloop
endfacet
facet normal 1.8698763907600536e-16 -1.0407789264062102e-16 1.0
  outer loop
    vertex 7.483102126772324 -81.6674294590163 2.0000000000000338
    vertex 7.483102126772324 -115.66742945901623 2.0000000000000338
    vertex 60.48310212677232 -115.66742945901623 2.000000000000022
  endloop
endfacet
facet normal 1.8698763907600536e-16 -1.0407789264062102e-16 1.0
  outer loop
    vertex 7.483102126772324 -81.6674294590163 2.0000000000000338
    vertex 60.48310212677232 -115.66742945901623 2.000000000000022
    vertex 37.43929498172868 -97.63419616047246 2.000000000000022
  endloop
endfacet
facet normal 1.8698763907600536e-16 -1.0407789264062102e-16 1.0
  outer loop
    vertex 7.483102126772324 -81.6674294590163 2.0000000000000338
    vertex 37.43929498172868 -97.63419616047246 2.000000000000022
    vertex 36.94756822083954 -97.20296336494901 2.000000000000022
  endloop
endfacet
facet normal 1.8698763907600536e-16 -1.0407789264062102e-16 1.0
  outer loop
    vertex 7.483102126772324 -81.6674294590163 2.0000000000000338
    vertex 36.94756822083954 -97.20296336494901 2.000000000000022
    vertex 36.51633542531611 -96.71123660405988 2.000000000000022
  endloop
endfacet
facet normal 1.8698763907600536e-16 -1.0407789264062102e-16 1.0
  outer loop
    vertex 7.483102126772324 -81.6674294590163 2.0000000000000338
    vertex 36.51633542531611 -96.71123660405988 2.000000000000022
    vertex 36.15297510785009 -96.16742945901628 2.000000000000022
  endloop
endfacet
facet normal 1.8698763907600536e-16 -1.0407789264062102e-16 1.0
  outer loop
    vertex 7.483102126772324 -81.6674294590163 2.0000000000000338
    vertex 36.15297510785009 -96.16742945901628 2.000000000000022
    vertex 35.86370446421585 -95.58084662084173 2.000000000000022
  endloop
endfacet
facet normal 1.8698763907600536e-16 -1.0407789264062102e-16 1.0
  outer loop
    vertex 7.483102126772324 -81.6674294590163 2.0000000000000338
    vertex 35.86370446421585 -95.58084662084173 2.000000000000022
    vertex 30.48310212677228 -81.6674294590163 2.0000000000000338
  endloop
endfacet
facet normal 1.8698763907600536e-16 -1.0407789264062102e-16 1.0
  outer loop
    vertex 30.48310212677228 -81.6674294590163 2.0000000000000338
    vertex 35.86370446421585 -95.58084662084173 2.000000000000022
    vertex 31.135733087872534 -81.71020515214725 2.0000000000000338
  endloop
endfacet
facet normal 1.8698763907600536e-16 -1.0407789264062102e-16 1.0
  outer loop
    vertex 31.135733087872534 -81.71020515214725 2.0000000000000338
    vertex 35.86370446421585 -95.58084662084173 2.000000000000022
    vertex 35.65347299532694 -94.96152468452888 2.000000000000022
  endloop
endfacet
facet normal 1.8698763907600536e-16 -1.0407789264062102e-16 1.0
  outer loop
    vertex 31.135733087872534 -81.71020515214725 2.0000000000000338
    vertex 35.65347299532694 -94.96152468452888 2.000000000000022
    vertex 31.777197352284883 -81.83780032757096 2.0000000000000338
  endloop
endfacet
facet normal 1.8698763907600536e-16 -1.0407789264062102e-16 1.0
  outer loop
    vertex 31.777197352284883 -81.83780032757096 2.0000000000000338
    vertex 35.65347299532694 -94.96152468452888 2.000000000000022
    vertex 32.39651928859773 -82.04803179645987 2.0000000000000338
  endloop
endfacet
facet normal 1.8698763907600536e-16 -1.0407789264062102e-16 1.0
  outer loop
    vertex 32.39651928859773 -82.04803179645987 2.0000000000000338
    vertex 35.65347299532694 -94.96152468452888 2.000000000000022
    vertex 32.98310212677228 -82.3373024400941 2.0000000000000338
  endloop
endfacet
facet normal 1.8698763907600536e-16 -1.0407789264062102e-16 1.0
  outer loop
    vertex 32.98310212677228 -82.3373024400941 2.0000000000000338
    vertex 35.65347299532694 -94.96152468452888 2.000000000000022
    vertex 35.525877819903236 -94.32006042011655 2.000000000000022
  endloop
endfacet
facet normal 1.8698763907600536e-16 -1.0407789264062102e-16 1.0
  outer loop
    vertex 32.98310212677228 -82.3373024400941 2.0000000000000338
    vertex 35.525877819903236 -94.32006042011655 2.000000000000022
    vertex 33.52690927181588 -82.70066275756012 2.0000000000000338
  endloop
endfacet
facet normal 1.8698763907600536e-16 -1.0407789264062102e-16 1.0
  outer loop
    vertex 33.52690927181588 -82.70066275756012 2.0000000000000338
    vertex 35.525877819903236 -94.32006042011655 2.000000000000022
    vertex 34.018636032705025 -83.13189555308357 2.0000000000000338
  endloop
endfacet
facet normal 1.8698763907600536e-16 -1.0407789264062102e-16 1.0
  outer loop
    vertex 34.018636032705025 -83.13189555308357 2.0000000000000338
    vertex 35.525877819903236 -94.32006042011655 2.000000000000022
    vertex 34.44986882822846 -83.6236223139727 2.0000000000000338
  endloop
endfacet
facet normal 1.8698763907600536e-16 -1.0407789264062102e-16 1.0
  outer loop
    vertex 34.44986882822846 -83.6236223139727 2.0000000000000338
    vertex 35.525877819903236 -94.32006042011655 2.000000000000022
    vertex 34.81322914569448 -84.16742945901629 2.0000000000000338
  endloop
endfacet
facet normal 1.8698763907600536e-16 -1.0407789264062102e-16 1.0
  outer loop
    vertex 34.81322914569448 -84.16742945901629 2.0000000000000338
    vertex 35.525877819903236 -94.32006042011655 2.000000000000022
    vertex 35.48310212677228 -93.66742945901628 2.000000000000022
  endloop
endfacet
facet normal 1.8698763907600536e-16 -1.0407789264062102e-16 1.0
  outer loop
    vertex 34.81322914569448 -84.16742945901629 2.0000000000000338
    vertex 35.48310212677228 -93.66742945901628 2.000000000000022
    vertex 35.10249978932872 -84.75401229719085 2.0000000000000338
  endloop
endfacet
facet normal 1.8698763907600536e-16 -1.0407789264062102e-16 1.0
  outer loop
    vertex 35.10249978932872 -84.75401229719085 2.0000000000000338
    vertex 35.48310212677228 -93.66742945901628 2.000000000000022
    vertex 35.312731258217624 -85.3733342335037 2.0000000000000338
  endloop
endfacet
facet normal 1.8698763907600536e-16 -1.0407789264062102e-16 1.0
  outer loop
    vertex 35.312731258217624 -85.3733342335037 2.0000000000000338
    vertex 35.48310212677228 -93.66742945901628 2.000000000000022
    vertex 35.44032643364134 -86.01479849791605 2.0000000000000338
  endloop
endfacet
facet normal 1.8698763907600536e-16 -1.0407789264062102e-16 1.0
  outer loop
    vertex 37.43929498172868 -97.63419616047246 2.000000000000022
    vertex 60.48310212677232 -115.66742945901623 2.000000000000022
    vertex 37.98310212677228 -97.99755647793847 2.000000000000022
  endloop
endfacet
facet normal 1.8698763907600536e-16 -1.0407789264062102e-16 1.0
  outer loop
    vertex 37.98310212677228 -97.99755647793847 2.000000000000022
    vertex 60.48310212677232 -115.66742945901623 2.000000000000022
    vertex 38.56968496494683 -98.28682712157271 2.000000000000022
  endloop
endfacet
facet normal 1.8698763907600536e-16 -1.0407789264062102e-16 1.0
  outer loop
    vertex 38.56968496494683 -98.28682712157271 2.000000000000022
    vertex 60.48310212677232 -115.66742945901623 2.000000000000022
    vertex 39.18900690125968 -98.49705859046162 2.000000000000022
  endloop
endfacet
facet normal 1.8698763907600536e-16 -1.0407789264062102e-16 1.0
  outer loop
    vertex 39.18900690125968 -98.49705859046162 2.000000000000022
    vertex 60.48310212677232 -115.66742945901623 2.000000000000022
    vertex 39.83047116567202 -98.62465376588533 2.000000000000022
  endloop
endfacet
facet normal 1.8698763907600536e-16 -1.0407789264062102e-16 1.0
  outer loop
    vertex 39.83047116567202 -98.62465376588533 2.000000000000022
    vertex 60.48310212677232 -115.66742945901623 2.000000000000022
    vertex 40.48310212677229 -98.66742945901628 2.000000000000022
  endloop
endfacet
facet normal 1.8698763907600536e-16 -1.0407789264062102e-16 1.0
  outer loop
    vertex 40.48310212677229 -98.66742945901628 2.000000000000022
    vertex 60.48310212677232 -115.66742945901623 2.000000000000022
    vertex 60.48310212677232 -98.66742945901628 2.0000000000000338
  endloop
endfacet
facet normal 1.8698763907600536e-16 -1.0407789264062102e-16 1.0
  outer loop
    vertex 35.48310212677228 -86.6674294590163 2.0000000000000338
    vertex 35.44032643364134 -86.01479849791605 2.0000000000000338
    vertex 35.48310212677228 -93.66742945901628 2.000000000000022
  endloop
endfacet
endsolid Transmitter
